solid OpenSCAD_Model
  facet normal -1 0 0
    outer loop
      vertex -40.45 10.45 2
      vertex -40.45 11.45 3
      vertex -40.45 11.45 2
    endloop
  endfacet
  facet normal -1 -0 0
    outer loop
      vertex -40.45 11.45 3
      vertex -40.45 10.45 2
      vertex -40.45 10.45 3
    endloop
  endfacet
  facet normal -1 0 0
    outer loop
      vertex -40.45 -11.45 0
      vertex -40.45 11.45 1.08
      vertex -40.45 11.45 0
    endloop
  endfacet
  facet normal -1 -0 0
    outer loop
      vertex -40.45 11.45 1.08
      vertex -40.45 -11.45 0
      vertex -40.45 -11.45 1.08
    endloop
  endfacet
  facet normal 0 0 1
    outer loop
      vertex -40.45 11.45 2
      vertex -41.4 11.45 2
      vertex -40.45 10.45 2
    endloop
  endfacet
  facet normal 0 0 1
    outer loop
      vertex 40.45 10.45 2
      vertex 41.4 11.45 2
      vertex 40.45 11.45 2
    endloop
  endfacet
  facet normal 0 0 1
    outer loop
      vertex 41.4 11.45 2
      vertex 40.45 10.45 2
      vertex 41.4 -11.45 2
    endloop
  endfacet
  facet normal -0 0 1
    outer loop
      vertex -40.45 10.45 2
      vertex 41.4 -11.45 2
      vertex 40.45 10.45 2
    endloop
  endfacet
  facet normal 0 0 1
    outer loop
      vertex -40.45 10.45 2
      vertex -41.4 -11.45 2
      vertex 41.4 -11.45 2
    endloop
  endfacet
  facet normal 0 0 1
    outer loop
      vertex -41.4 -11.45 2
      vertex -40.45 10.45 2
      vertex -41.4 11.45 2
    endloop
  endfacet
  facet normal 1 -0 0
    outer loop
      vertex 40.45 10.45 3
      vertex 40.45 11.45 2
      vertex 40.45 11.45 3
    endloop
  endfacet
  facet normal 1 0 0
    outer loop
      vertex 40.45 11.45 2
      vertex 40.45 10.45 3
      vertex 40.45 10.45 2
    endloop
  endfacet
  facet normal 1 -0 0
    outer loop
      vertex 40.45 -11.45 1.08
      vertex 40.45 11.45 0
      vertex 40.45 11.45 1.08
    endloop
  endfacet
  facet normal 1 0 0
    outer loop
      vertex 40.45 11.45 0
      vertex 40.45 -11.45 1.08
      vertex 40.45 -11.45 0
    endloop
  endfacet
  facet normal 0 0 -1
    outer loop
      vertex -40.45 -11.45 0
      vertex 40.45 11.45 0
      vertex 40.45 -11.45 0
    endloop
  endfacet
  facet normal -0 0 -1
    outer loop
      vertex 40.45 11.45 0
      vertex -40.45 -11.45 0
      vertex -40.45 11.45 0
    endloop
  endfacet
  facet normal 0 -1 0
    outer loop
      vertex -40.45 -11.45 0
      vertex 40.45 -11.45 1.08
      vertex -40.45 -11.45 1.08
    endloop
  endfacet
  facet normal 0 -1 -0
    outer loop
      vertex 40.45 -11.45 1.08
      vertex -40.45 -11.45 0
      vertex 40.45 -11.45 0
    endloop
  endfacet
  facet normal 0 -1 0
    outer loop
      vertex -40.45 -11.45 1.08
      vertex -41.4 -11.45 2
      vertex -41.4 -11.45 1.08
    endloop
  endfacet
  facet normal 0 -1 0
    outer loop
      vertex -41.4 -11.45 2
      vertex -40.45 -11.45 1.08
      vertex 41.4 -11.45 2
    endloop
  endfacet
  facet normal 0 -1 0
    outer loop
      vertex 40.45 -11.45 1.08
      vertex 41.4 -11.45 2
      vertex -40.45 -11.45 1.08
    endloop
  endfacet
  facet normal 0 -1 -0
    outer loop
      vertex 41.4 -11.45 2
      vertex 40.45 -11.45 1.08
      vertex 41.4 -11.45 1.08
    endloop
  endfacet
  facet normal 0 1 -0
    outer loop
      vertex 40.45 11.45 0
      vertex -40.45 11.45 1.08
      vertex 40.45 11.45 1.08
    endloop
  endfacet
  facet normal 0 1 0
    outer loop
      vertex -40.45 11.45 1.08
      vertex 40.45 11.45 0
      vertex -40.45 11.45 0
    endloop
  endfacet
  facet normal 0 1 0
    outer loop
      vertex 40.45 11.45 1.08
      vertex 40.45 11.45 2
      vertex 41.4 11.45 2
    endloop
  endfacet
  facet normal 0 1 0
    outer loop
      vertex 40.45 11.45 2
      vertex 40.45 11.45 1.08
      vertex -40.45 11.45 2
    endloop
  endfacet
  facet normal 0 1 0
    outer loop
      vertex 40.45 11.45 1.08
      vertex 41.4 11.45 2
      vertex 41.4 11.45 1.08
    endloop
  endfacet
  facet normal 0 1 0
    outer loop
      vertex -40.45 11.45 1.08
      vertex -40.45 11.45 2
      vertex 40.45 11.45 1.08
    endloop
  endfacet
  facet normal 0 1 0
    outer loop
      vertex -40.45 11.45 2
      vertex -40.45 11.45 1.08
      vertex -41.4 11.45 2
    endloop
  endfacet
  facet normal 0 1 0
    outer loop
      vertex -41.4 11.45 2
      vertex -40.45 11.45 1.08
      vertex -41.4 11.45 1.08
    endloop
  endfacet
  facet normal 0 1 -0
    outer loop
      vertex 40.45 11.45 2
      vertex -40.45 11.45 3
      vertex 40.45 11.45 3
    endloop
  endfacet
  facet normal 0 1 0
    outer loop
      vertex -40.45 11.45 3
      vertex 40.45 11.45 2
      vertex -40.45 11.45 2
    endloop
  endfacet
  facet normal -1 0 0
    outer loop
      vertex -41.4 -11.45 1.08
      vertex -41.4 11.45 2
      vertex -41.4 11.45 1.08
    endloop
  endfacet
  facet normal -1 -0 0
    outer loop
      vertex -41.4 11.45 2
      vertex -41.4 -11.45 1.08
      vertex -41.4 -11.45 2
    endloop
  endfacet
  facet normal 1 -0 0
    outer loop
      vertex 41.4 -11.45 2
      vertex 41.4 11.45 1.08
      vertex 41.4 11.45 2
    endloop
  endfacet
  facet normal 1 0 0
    outer loop
      vertex 41.4 11.45 1.08
      vertex 41.4 -11.45 2
      vertex 41.4 -11.45 1.08
    endloop
  endfacet
  facet normal 0 0 -1
    outer loop
      vertex -41.4 -11.45 1.08
      vertex -40.45 11.45 1.08
      vertex -40.45 -11.45 1.08
    endloop
  endfacet
  facet normal -0 0 -1
    outer loop
      vertex -40.45 11.45 1.08
      vertex -41.4 -11.45 1.08
      vertex -41.4 11.45 1.08
    endloop
  endfacet
  facet normal 0 0 -1
    outer loop
      vertex 40.45 -11.45 1.08
      vertex 41.4 11.45 1.08
      vertex 41.4 -11.45 1.08
    endloop
  endfacet
  facet normal -0 0 -1
    outer loop
      vertex 41.4 11.45 1.08
      vertex 40.45 -11.45 1.08
      vertex 40.45 11.45 1.08
    endloop
  endfacet
  facet normal -0 0 1
    outer loop
      vertex -40.45 11.45 3
      vertex 40.45 10.45 3
      vertex 40.45 11.45 3
    endloop
  endfacet
  facet normal 0 0 1
    outer loop
      vertex 40.45 10.45 3
      vertex -40.45 11.45 3
      vertex -40.45 10.45 3
    endloop
  endfacet
  facet normal 0 -1 0
    outer loop
      vertex -40.45 10.45 2
      vertex 40.45 10.45 3
      vertex -40.45 10.45 3
    endloop
  endfacet
  facet normal 0 -1 -0
    outer loop
      vertex 40.45 10.45 3
      vertex -40.45 10.45 2
      vertex 40.45 10.45 2
    endloop
  endfacet
endsolid OpenSCAD_Model
