solid OpenSCAD_Model
  facet normal -1 0 0
    outer loop
      vertex -40.45 9.925 2
      vertex -40.45 10.925 3
      vertex -40.45 10.925 2
    endloop
  endfacet
  facet normal -1 -0 0
    outer loop
      vertex -40.45 10.925 3
      vertex -40.45 9.925 2
      vertex -40.45 9.925 3
    endloop
  endfacet
  facet normal -1 0 0
    outer loop
      vertex -40.45 -10.925 0
      vertex -40.45 10.925 1.08
      vertex -40.45 10.925 0
    endloop
  endfacet
  facet normal -1 -0 0
    outer loop
      vertex -40.45 10.925 1.08
      vertex -40.45 -10.925 0
      vertex -40.45 -10.925 1.08
    endloop
  endfacet
  facet normal 0 0 1
    outer loop
      vertex -40.45 10.925 2
      vertex -41.4 10.925 2
      vertex -40.45 9.925 2
    endloop
  endfacet
  facet normal 0 0 1
    outer loop
      vertex 40.45 9.925 2
      vertex 41.4 10.925 2
      vertex 40.45 10.925 2
    endloop
  endfacet
  facet normal 0 0 1
    outer loop
      vertex 41.4 10.925 2
      vertex 40.45 9.925 2
      vertex 41.4 -10.925 2
    endloop
  endfacet
  facet normal -0 0 1
    outer loop
      vertex -40.45 9.925 2
      vertex 41.4 -10.925 2
      vertex 40.45 9.925 2
    endloop
  endfacet
  facet normal 0 0 1
    outer loop
      vertex -40.45 9.925 2
      vertex -41.4 -10.925 2
      vertex 41.4 -10.925 2
    endloop
  endfacet
  facet normal 0 0 1
    outer loop
      vertex -41.4 -10.925 2
      vertex -40.45 9.925 2
      vertex -41.4 10.925 2
    endloop
  endfacet
  facet normal 1 -0 0
    outer loop
      vertex 40.45 9.925 3
      vertex 40.45 10.925 2
      vertex 40.45 10.925 3
    endloop
  endfacet
  facet normal 1 0 0
    outer loop
      vertex 40.45 10.925 2
      vertex 40.45 9.925 3
      vertex 40.45 9.925 2
    endloop
  endfacet
  facet normal 1 -0 0
    outer loop
      vertex 40.45 -10.925 1.08
      vertex 40.45 10.925 0
      vertex 40.45 10.925 1.08
    endloop
  endfacet
  facet normal 1 0 0
    outer loop
      vertex 40.45 10.925 0
      vertex 40.45 -10.925 1.08
      vertex 40.45 -10.925 0
    endloop
  endfacet
  facet normal 0 1 -0
    outer loop
      vertex 40.45 10.925 0
      vertex -40.45 10.925 1.08
      vertex 40.45 10.925 1.08
    endloop
  endfacet
  facet normal 0 1 0
    outer loop
      vertex -40.45 10.925 1.08
      vertex 40.45 10.925 0
      vertex -40.45 10.925 0
    endloop
  endfacet
  facet normal 0 1 0
    outer loop
      vertex 40.45 10.925 1.08
      vertex 40.45 10.925 2
      vertex 41.4 10.925 2
    endloop
  endfacet
  facet normal 0 1 0
    outer loop
      vertex 40.45 10.925 2
      vertex 40.45 10.925 1.08
      vertex -40.45 10.925 2
    endloop
  endfacet
  facet normal 0 1 0
    outer loop
      vertex 40.45 10.925 1.08
      vertex 41.4 10.925 2
      vertex 41.4 10.925 1.08
    endloop
  endfacet
  facet normal 0 1 0
    outer loop
      vertex -40.45 10.925 1.08
      vertex -40.45 10.925 2
      vertex 40.45 10.925 1.08
    endloop
  endfacet
  facet normal 0 1 0
    outer loop
      vertex -40.45 10.925 2
      vertex -40.45 10.925 1.08
      vertex -41.4 10.925 2
    endloop
  endfacet
  facet normal 0 1 0
    outer loop
      vertex -41.4 10.925 2
      vertex -40.45 10.925 1.08
      vertex -41.4 10.925 1.08
    endloop
  endfacet
  facet normal 0 1 -0
    outer loop
      vertex 40.45 10.925 2
      vertex -40.45 10.925 3
      vertex 40.45 10.925 3
    endloop
  endfacet
  facet normal 0 1 0
    outer loop
      vertex -40.45 10.925 3
      vertex 40.45 10.925 2
      vertex -40.45 10.925 2
    endloop
  endfacet
  facet normal 0 0 -1
    outer loop
      vertex -40.45 -10.925 0
      vertex 40.45 10.925 0
      vertex 40.45 -10.925 0
    endloop
  endfacet
  facet normal -0 0 -1
    outer loop
      vertex 40.45 10.925 0
      vertex -40.45 -10.925 0
      vertex -40.45 10.925 0
    endloop
  endfacet
  facet normal 0 -1 0
    outer loop
      vertex -40.45 -10.925 0
      vertex 40.45 -10.925 1.08
      vertex -40.45 -10.925 1.08
    endloop
  endfacet
  facet normal 0 -1 -0
    outer loop
      vertex 40.45 -10.925 1.08
      vertex -40.45 -10.925 0
      vertex 40.45 -10.925 0
    endloop
  endfacet
  facet normal 0 -1 0
    outer loop
      vertex -40.45 -10.925 1.08
      vertex -41.4 -10.925 2
      vertex -41.4 -10.925 1.08
    endloop
  endfacet
  facet normal 0 -1 0
    outer loop
      vertex -41.4 -10.925 2
      vertex -40.45 -10.925 1.08
      vertex 41.4 -10.925 2
    endloop
  endfacet
  facet normal 0 -1 0
    outer loop
      vertex 40.45 -10.925 1.08
      vertex 41.4 -10.925 2
      vertex -40.45 -10.925 1.08
    endloop
  endfacet
  facet normal 0 -1 -0
    outer loop
      vertex 41.4 -10.925 2
      vertex 40.45 -10.925 1.08
      vertex 41.4 -10.925 1.08
    endloop
  endfacet
  facet normal -1 0 0
    outer loop
      vertex -41.4 -10.925 1.08
      vertex -41.4 10.925 2
      vertex -41.4 10.925 1.08
    endloop
  endfacet
  facet normal -1 -0 0
    outer loop
      vertex -41.4 10.925 2
      vertex -41.4 -10.925 1.08
      vertex -41.4 -10.925 2
    endloop
  endfacet
  facet normal 1 -0 0
    outer loop
      vertex 41.4 -10.925 2
      vertex 41.4 10.925 1.08
      vertex 41.4 10.925 2
    endloop
  endfacet
  facet normal 1 0 0
    outer loop
      vertex 41.4 10.925 1.08
      vertex 41.4 -10.925 2
      vertex 41.4 -10.925 1.08
    endloop
  endfacet
  facet normal 0 0 -1
    outer loop
      vertex -41.4 -10.925 1.08
      vertex -40.45 10.925 1.08
      vertex -40.45 -10.925 1.08
    endloop
  endfacet
  facet normal -0 0 -1
    outer loop
      vertex -40.45 10.925 1.08
      vertex -41.4 -10.925 1.08
      vertex -41.4 10.925 1.08
    endloop
  endfacet
  facet normal 0 0 -1
    outer loop
      vertex 40.45 -10.925 1.08
      vertex 41.4 10.925 1.08
      vertex 41.4 -10.925 1.08
    endloop
  endfacet
  facet normal -0 0 -1
    outer loop
      vertex 41.4 10.925 1.08
      vertex 40.45 -10.925 1.08
      vertex 40.45 10.925 1.08
    endloop
  endfacet
  facet normal -0 0 1
    outer loop
      vertex -40.45 10.925 3
      vertex 40.45 9.925 3
      vertex 40.45 10.925 3
    endloop
  endfacet
  facet normal 0 0 1
    outer loop
      vertex 40.45 9.925 3
      vertex -40.45 10.925 3
      vertex -40.45 9.925 3
    endloop
  endfacet
  facet normal 0 -1 0
    outer loop
      vertex -40.45 9.925 2
      vertex 40.45 9.925 3
      vertex -40.45 9.925 3
    endloop
  endfacet
  facet normal 0 -1 -0
    outer loop
      vertex 40.45 9.925 3
      vertex -40.45 9.925 2
      vertex 40.45 9.925 2
    endloop
  endfacet
endsolid OpenSCAD_Model
